<svg viewBox="0 0 36 36" fill="#00c271" xmlns="http://www.w3.org/2000/svg" fillsecondary="#00af66"><g clip-path="url(#rarenote-io)"><path d="M28.793 21.788 16.118 9.113a2.693 2.693 0 0 1 0-3.818 2.693 2.693 0 0 1 3.817 0l8.858 8.857a5.399 5.399 0 0 1 0 7.636Z" fill="#00c271"></path><path d="M28.83 9.9a2.7 2.7 0 1 0 0-5.4 2.7 2.7 0 0 0 0 5.4ZM7.23 31.5a2.7 2.7 0 1 0 0-5.4 2.7 2.7 0 0 0 0 5.4Z" fill="#00af66"></path><path d="m7.192 14.137 12.75 12.75a2.693 2.693 0 0 1 0 3.818 2.693 2.693 0 0 1-3.817 0l-8.933-8.932a5.399 5.399 0 0 1 0-7.636Z" fill="#00c271"></path><path d="M30.71 26.89a2.7 2.7 0 1 1-3.82 3.82L5.29 9.11a2.7 2.7 0 1 1 3.82-3.82l21.6 21.6Z" fill="#00af66"></path></g></svg>